<svg xmlns="http://www.w3.org/2000/svg" viewBox="0 0 1200 675" role="img" aria-labelledby="title desc">
  <title id="title">ResumeBoost AI project preview</title>
  <desc id="desc">A branded preview for the local-first resume bullet generator.</desc>
  <defs>
    <linearGradient id="background" x1="0" y1="0" x2="1" y2="1">
      <stop offset="0" stop-color="#f6f4ee"/>
      <stop offset="1" stop-color="#ece8ff"/>
    </linearGradient>
    <filter id="shadow" x="-20%" y="-20%" width="140%" height="140%">
      <feDropShadow dx="0" dy="20" stdDeviation="28" flood-color="#17161d" flood-opacity=".17"/>
    </filter>
  </defs>
  <rect width="1200" height="675" fill="url(#background)"/>
  <path d="M0 75h1200M0 165h1200M0 255h1200M0 345h1200M0 435h1200M0 525h1200M0 615h1200M90 0v675M180 0v675M270 0v675M360 0v675M450 0v675M540 0v675M630 0v675M720 0v675M810 0v675M900 0v675M990 0v675M1080 0v675" stroke="#17161d" stroke-opacity=".045"/>
  <circle cx="1095" cy="90" r="230" fill="#6d4aff" opacity=".1"/>
  <circle cx="95" cy="620" r="240" fill="#c6ff4a" opacity=".35"/>
  <g filter="url(#shadow)">
    <rect x="115" y="88" width="970" height="500" rx="38" fill="#fff" fill-opacity=".88"/>
  </g>
  <g transform="translate(180 164)">
    <rect width="270" height="340" rx="22" fill="#17161d"/>
    <rect x="35" y="42" width="88" height="14" rx="7" fill="#c6ff4a"/>
    <rect x="35" y="82" width="200" height="8" rx="4" fill="#fff" opacity=".9"/>
    <rect x="35" y="103" width="164" height="8" rx="4" fill="#fff" opacity=".45"/>
    <rect x="35" y="148" width="72" height="10" rx="5" fill="#8f76ff"/>
    <circle cx="43" cy="194" r="5" fill="#c6ff4a"/>
    <rect x="57" y="189" width="170" height="8" rx="4" fill="#fff" opacity=".72"/>
    <circle cx="43" cy="226" r="5" fill="#c6ff4a"/>
    <rect x="57" y="221" width="146" height="8" rx="4" fill="#fff" opacity=".72"/>
    <circle cx="43" cy="258" r="5" fill="#c6ff4a"/>
    <rect x="57" y="253" width="181" height="8" rx="4" fill="#fff" opacity=".72"/>
    <rect x="35" y="300" width="110" height="12" rx="6" fill="#8f76ff" opacity=".8"/>
  </g>
  <g font-family="Arial, sans-serif">
    <rect x="510" y="170" width="230" height="48" rx="24" fill="#6d4aff" opacity=".12"/>
    <text x="543" y="201" font-size="18" font-weight="800" letter-spacing="2" fill="#6d4aff">YOUR EXPERIENCE</text>
    <text x="510" y="298" font-family="Georgia, 'Times New Roman', serif" font-size="76" font-weight="700" letter-spacing="-3" fill="#17161d">ResumeBoost</text>
    <text x="510" y="374" font-family="Georgia, 'Times New Roman', serif" font-size="76" font-weight="700" font-style="italic" fill="#6d4aff">AI</text>
    <circle cx="610" cy="325" r="13" fill="#c6ff4a"/>
    <text x="510" y="433" font-size="25" fill="#686572">Turn simple work descriptions into</text>
    <text x="510" y="470" font-size="25" fill="#686572">professional resume bullet points.</text>
    <rect x="510" y="507" width="212" height="54" rx="27" fill="#17161d"/>
    <text x="553" y="542" font-size="20" font-weight="800" fill="#fff">BUILD BETTER →</text>
  </g>
</svg>
